<svg width="59" height="53" viewBox="0 0 59 53" fill="none" xmlns="http://www.w3.org/2000/svg">
<path d="M58 26.5C58 40.4851 45.3437 52 29.5 52C13.6563 52 1 40.4851 1 26.5C1 12.5149 13.6563 1 29.5 1C45.3437 1 58 12.5149 58 26.5Z" fill="#FFBD59" stroke="#7B6152" stroke-width="2"/>
<path d="M30.4365 14.9591C29.8616 14.3626 28.912 14.3451 28.3155 14.92L18.5953 24.2884C17.9988 24.8633 17.9813 25.8129 18.5562 26.4094C19.1311 27.0059 20.0807 27.0234 20.6772 26.4485L29.3174 18.121L37.6449 26.7611C38.2198 27.3576 39.1693 27.3751 39.7658 26.8002C40.3623 26.2253 40.3798 25.2757 39.8049 24.6793L30.4365 14.9591ZM30.4997 35.3707L30.8562 16.0276L27.8567 15.9724L27.5003 35.3154L30.4997 35.3707Z" fill="#7B6152"/>
</svg>
